<svg id="Calque_1" data-name="Calque 1" xmlns="http://www.w3.org/2000/svg" viewBox="0 0 1366 768"><defs><style>.cls-1{fill:#58bac5;}.cls-2{fill:#e5025b;}</style></defs><path class="cls-1" d="M1183.33,502.79s-1.45-12.4,13.05-31c10.47-13.43,30-27.67,40.08-34.55A119.37,119.37,0,0,0,1250.64,426c17.66-16.34,28.21-36.19,31.31-54.94,4.35-26.35-2.9-40.3-2.9-40.3s-3.76-5.45-5.8-3.1c-2.48,2.85-.51,12.79-.18,16.75a35.83,35.83,0,0,1,0,5.86,61,61,0,0,1-28.88,45.58c-29.8,18.18-23.21,12.4-23.21,12.4s7.92-19,7.26-27.89c-.45-5.88-2.1-12.75-5.62-6.74-.92,1.56-2.23,7.09-3.09,9.84-1.06,3.4-6.78,11.78-9.77,16a36.6,36.6,0,0,1-3.88,4.63c-4,4.1-13,13.17-17.17,17.3-4.57,4.56-13,13.53-15.25,22.49a73.35,73.35,0,0,0-2.07,13.43C1170.69,470.75,1171.44,479,1183.33,502.79Z"/><path class="cls-1" d="M200.49,464.63l-30-47c13.06-8.61,24.33-22.47,27.31-39.42,7.1-40.49-10.56-60.73-26.85-70.62a62.65,62.65,0,0,0-32.68-9H96.88c-9.1,0-16.47,8.55-16.47,19.11V479.32c0,2.39.59,8.25,1.76,10.24,2.31,3.93,7.26,5.86,17,5.78,6.35,0,10.82-1.61,13.9-6.19a15.47,15.47,0,0,0,2.12-7.33v-57h20.08s23.17,40.49,32.44,56.34,13.9,14.08,13.9,14.08,9.27,3.52,17-5.28c3.05-3.48,5.31-6.23,5.68-10.19A24.25,24.25,0,0,0,200.49,464.63Zm-37.39-95C158.6,388.44,138.88,388,138.88,388H115.16V333.69h22.47a26,26,0,0,1,7.76,1.1,20.51,20.51,0,0,1,7,3.58,26.59,26.59,0,0,1,10.87,15.81A32.91,32.91,0,0,1,163.1,369.62Z"/><path class="cls-1" d="M318.9,381.57c-3.38-11.4-9.93-22.78-19-29.79-11.86-9.18-25-9.82-37.58-7.44C247.1,347.23,238,353.53,232,359c-8.43,7.83-24.3,24.31-21.28,68.14,1.51,21.92,9.81,37.15,17.73,46.91a54.09,54.09,0,0,0,30,18.89c11.71,2.67,29,3.89,46.14-4.86,11.85-6.05,13.87-17.35,12-28.82,0,0-1.53-11.08-15.13-4.06-5.09,2.62-8.91,4.51-11.7,5.85a30,30,0,0,1-14.58,3c-6.8-.36-15.28-3-20.56-7.06-4.53-3.51-9.07-8.77-10.63-26.86h65.12a14.31,14.31,0,0,0,12.39-7.4,11.13,11.13,0,0,0,1.12-2.56C323.48,417,324.1,399.13,318.9,381.57Zm-26.61,24H244s-1.51-19.29,11.9-28.05a24.51,24.51,0,0,1,20-3A21,21,0,0,1,289.3,386,34.13,34.13,0,0,1,292.29,405.58Z"/><path class="cls-1" d="M446.15,381.57c-3.38-11.4-9.93-22.78-19-29.79-11.86-9.18-25-9.82-37.58-7.44-15.22,2.89-24.37,9.19-30.29,14.69-8.43,7.83-24.3,24.31-21.28,68.14,1.51,21.92,9.81,37.15,17.73,46.91a54.09,54.09,0,0,0,30,18.89c11.71,2.67,29,3.89,46.14-4.86,11.85-6.05,13.86-17.35,12-28.82,0,0-1.53-11.08-15.13-4.06-5.09,2.62-8.91,4.51-11.7,5.85a30.06,30.06,0,0,1-14.59,3c-6.79-.36-15.27-3-20.55-7.06-4.53-3.51-9.07-8.77-10.63-26.86h65.12A14.29,14.29,0,0,0,448.54,423a12.41,12.41,0,0,0,1.28-2.84C450.73,417,451.35,399.13,446.15,381.57Zm-26.62,22.25H371.24s-1.51-19.28,11.9-28.05a24.5,24.5,0,0,1,20-3,20.93,20.93,0,0,1,13.43,11.5A34,34,0,0,1,419.53,403.82Z"/><path class="cls-1" d="M1034.05,381.32c-3.38-11.4-9.93-22.78-19-29.79-11.87-9.17-25-9.82-37.58-7.43-15.23,2.88-24.38,9.18-30.3,14.68-8.43,7.83-24.3,24.31-21.28,68.14,1.52,21.92,9.81,37.16,17.73,46.91a54.09,54.09,0,0,0,30,18.89c11.71,2.67,29,3.89,46.14-4.85,11.86-6.06,13.87-17.36,12-28.83,0,0-1.53-11.08-15.13-4.06-5.1,2.62-8.92,4.51-11.71,5.85a30,30,0,0,1-14.58,3c-6.8-.36-15.28-3-20.56-7.06-4.53-3.51-9.06-8.77-10.62-26.85h65.12a14.29,14.29,0,0,0,12.22-7.13,12,12,0,0,0,1.28-2.84C1038.64,416.72,1039.26,398.88,1034.05,381.32Zm-26.61,22.26H959.15s-1.51-19.29,11.9-28.06a24.49,24.49,0,0,1,20-3,20.94,20.94,0,0,1,13.42,11.5A34.13,34.13,0,0,1,1007.44,403.58Z"/><path class="cls-2" d="M599.73,368.83c-3-13.81-9.46-26.29-18.66-35.73l-.68-.69a72,72,0,0,0-51.26-21.76H486.92s-16.13-1.75-16.13,15.78V480.25s1.51,12.75,10.57,14.5c6.84,1.32,34,.65,47.78.24a71.81,71.81,0,0,0,24.57-5c14.72-5.89,34.94-18.73,44-46.08C607.07,415.66,603.68,386.74,599.73,368.83Zm-35.26,66.31c-3,7-7.56,14-18.13,21s-39.29,5.75-39.29,5.75V344h19.07a42.16,42.16,0,0,1,18.66,4.21,36.85,36.85,0,0,1,19.69,23.43C572,397.48,567.49,428.12,564.47,435.14Z"/><path class="cls-2" d="M619.94,362.85v83.86c0,12.6,3.61,25,10.7,34.52,4.64,6.27,11,11.7,19.52,13,25.19,3.9,33.27-4.46,42.31-12.27v.53a12.36,12.36,0,0,0,.17,2.19c1.84,10.05,9.1,9.55,14.94,9.55,7.25,0,12.08-3.51,13.6-12.27.8-4.65.23-92.43.05-117.89-.06-8.25-6.1-13.61-13.34-13.66-.1,0-.21.05-.31.05-10.58,0-15.11,1.75-16.62,8.77-1.3,6,0,42.3,0,57.85,0,10.52-1,28.53-3,33.32-3,7-10.47,12.27-19.64,12.27-15.11,0-16.62-17.53-16.62-17.53V367.43c0-5.68-2.6-11.11-7-13.56a13.29,13.29,0,0,0-6.59-1.65c-8.81,0-14.48,1.22-17,5.68A10.16,10.16,0,0,0,619.94,362.85Z"/><path class="cls-1" d="M746.92,307.2c-9,1.47-14.68,12.06-11.88,22.12L778.63,486s3,10.52,13.6,10.52H807.6s11.83,0,14.85-10.52c2.59-9,33.26-124.14,42.48-157.64,2.6-9.46-3.19-19.44-11.9-21.19a1.42,1.42,0,0,0-.36,0h-.36c-11.72,0-17.77,7-20.1,16.78l-30.91,134L767.09,322.41c-2.36-9.48-10-16.16-18.5-15.43-.44,0-.89.09-1.34.16Z"/><path class="cls-1" d="M877.88,366.76V485.35s0,11.15,9.07,11.15h13.71s7.44,0,7.44-10.52V366.76s0-8.77-6-10.52-17.93,0-17.93,0S877.88,358,877.88,366.76Z"/><path class="cls-1" d="M877.53,324.64V317.7c0-7.77,5.42-14.06,12.11-14.06h9c6.69,0,12.12,6.29,12.12,14.06v6.94c0,7.77-5.43,14.06-12.12,14.06h-9C883,338.7,877.53,332.41,877.53,324.64Z"/><path class="cls-2" d="M1250.38,288.24l-72,49.91c-40.54-44.85-93.16-27.6-100.06,6s15.53,67.28,35.37,83.67c16.52,13.65,36.63,35.07,42.89,41.86a10,10,0,0,0,4.36,2.8c4.08,1.27-.07-3.38-2.1-10.07s5.37-27.93,6.59-31.44c11.52-33.25,19.58-45.85,34.81-70.34,16.18-26,52.91-51.9,63.86-59.27a10.77,10.77,0,0,0,4.86-8.26c.24-4.56-2.69-6.55-6-7.37A15.58,15.58,0,0,0,1250.38,288.24Zm-85.8,80.1s-2.59,11.22-11.21,35.37l-8.63,24.15s-38.08-32-41.9-53.95,6.53-32.31,6.53-32.31,16.39-13.8,37.1-1.72S1164.58,368.34,1164.58,368.34Z"/><rect class="cls-2" x="1158.72" y="264.9" width="44.86" height="48.13" rx="22.43"/></svg>